# Blender v2.79 (sub 0) OBJ File: 'balcon_izquierdo_1.blend'
# www.blender.org
mtllib balcon_izquierdo_1.mtl
o PISO1.001_Cube.001
v -49.667801 12.000000 5.022506
v -49.667801 12.000000 5.428204
v -49.278206 12.000000 5.022506
v -49.278206 12.000000 5.428200
v -49.667801 14.083331 5.428204
v -49.667801 14.083331 5.022506
v -49.278202 14.083331 5.428204
v -49.278198 14.083331 5.022506
v -47.330002 14.083331 5.022506
v -47.330006 14.083331 5.428204
v -47.330009 12.000000 5.022506
v -47.330009 12.000000 5.428200
vn 0.0000 -1.0000 0.0000
vn 1.0000 -0.0000 0.0000
vn 0.0000 0.0000 -1.0000
vn 0.0000 1.0000 -0.0000
vn 0.0000 -0.0000 1.0000
vn -1.0000 0.0000 0.0000
usemtl Material.011
s off
f 3//1 4//1 2//1 1//1
f 12//2 11//2 9//2 10//2
f 4//1 3//1 11//1 12//1
usemtl Material.009
f 3//3 8//3 9//3 11//3
usemtl Material.110
f 6//4 5//4 7//4 8//4
f 8//4 7//4 10//4 9//4
f 7//5 4//5 12//5 10//5
f 4//5 7//5 5//5 2//5
f 2//6 5//6 6//6 1//6
f 6//3 8//3 3//3 1//3
o PISO1.000_Cube.000
v -49.667801 6.500000 5.022506
v -49.667801 6.500000 5.428204
v -49.278206 6.500000 5.022506
v -49.278206 6.500000 5.428200
v -49.667801 8.583332 5.428204
v -49.667801 8.583332 5.022506
v -49.278202 8.583332 5.428204
v -49.278198 8.583332 5.022506
v -47.330002 8.583332 5.022506
v -47.330006 8.583332 5.428204
v -47.330009 6.500000 5.022506
v -47.330009 6.500000 5.428200
vn 0.0000 -1.0000 0.0000
vn 1.0000 -0.0000 0.0000
vn 0.0000 0.0000 -1.0000
vn 0.0000 1.0000 -0.0000
vn 0.0000 -0.0000 1.0000
vn -1.0000 0.0000 0.0000
usemtl Material.011
s off
f 15//7 16//7 14//7 13//7
f 24//8 23//8 21//8 22//8
f 16//7 15//7 23//7 24//7
usemtl Material.009
f 15//9 20//9 21//9 23//9
usemtl Material.110
f 18//10 17//10 19//10 20//10
f 20//10 19//10 22//10 21//10
f 19//11 16//11 24//11 22//11
f 16//11 19//11 17//11 14//11
f 14//12 17//12 18//12 13//12
f 18//9 20//9 15//9 13//9
o PISO1.002_Cube.002
v -49.667801 17.499998 5.022506
v -49.667801 17.499998 5.428204
v -49.278206 17.499998 5.022506
v -49.278206 17.499998 5.428200
v -49.667801 19.583330 5.428204
v -49.667801 19.583330 5.022506
v -49.278202 19.583330 5.428204
v -49.278198 19.583330 5.022506
v -47.330002 19.583330 5.022506
v -47.330006 19.583330 5.428204
v -47.330009 17.499998 5.022506
v -47.330009 17.499998 5.428200
vn 0.0000 -1.0000 0.0000
vn 1.0000 -0.0000 0.0000
vn 0.0000 0.0000 -1.0000
vn 0.0000 1.0000 -0.0000
vn 0.0000 -0.0000 1.0000
vn -1.0000 0.0000 0.0000
usemtl Material.011
s off
f 27//13 28//13 26//13 25//13
f 36//14 35//14 33//14 34//14
f 28//13 27//13 35//13 36//13
usemtl Material.009
f 27//15 32//15 33//15 35//15
usemtl Material.110
f 30//16 29//16 31//16 32//16
f 32//16 31//16 34//16 33//16
f 31//17 28//17 36//17 34//17
f 30//15 32//15 27//15 25//15
f 28//17 31//17 29//17 26//17
f 26//18 29//18 30//18 25//18
o TECHO_4_Cube.033
v -49.278198 23.000000 5.424891
v -49.278198 23.000000 5.426550
v -49.278198 25.500000 5.426550
v -49.278198 23.000000 5.022550
v -49.278198 25.500000 5.022550
v -46.848202 23.000000 5.426550
v -46.848202 25.500000 5.426550
v -46.848202 23.000000 5.022550
v -46.848202 25.500000 5.022550
vn 0.0000 0.0000 -1.0000
vn 1.0000 0.0000 0.0000
vn 0.0000 -1.0000 0.0000
vn 0.0000 1.0000 0.0000
vn -1.0000 0.0000 0.0000
vn 0.0000 0.0000 1.0000
usemtl Material.075
s off
f 40//19 41//19 45//19 44//19
f 44//20 45//20 43//20 42//20
f 40//21 44//21 42//21 38//21
f 45//22 41//22 39//22 43//22
usemtl Material.112
f 38//23 39//23 41//23 40//23
f 42//24 43//24 39//24 38//24
