# Blender v2.79 (sub 0) OBJ File: 'balcon_derecho_1.blend'
# www.blender.org
mtllib balcon_derecho_1.mtl
o PISO4.001_Cube.002
v 49.663902 12.000000 5.386930
v 49.278156 12.000000 5.386932
v 49.278198 12.000000 5.014729
v 49.663895 12.000000 5.014729
v 49.663902 14.083334 5.386930
v 49.278156 14.083334 5.386932
v 49.663914 14.083334 5.014729
v 49.278217 14.083334 5.014729
v 47.329517 12.889551 5.014622
v 49.663902 13.827474 5.014729
v 49.663902 13.827474 5.386930
v 49.278156 13.827474 5.386932
v 49.278206 13.827474 5.014729
v 47.329472 12.889551 5.386824
v 47.329521 13.827478 5.014622
v 49.663898 12.889547 5.014729
v 49.663902 12.889547 5.386930
v 49.278156 12.889547 5.386932
v 49.278202 12.889547 5.014729
v 47.329472 13.827478 5.386824
v 47.329472 12.000004 5.386824
v 47.329514 12.000004 5.014622
v 47.329472 14.083338 5.386824
v 47.329533 14.083338 5.014622
vn 0.0000 -1.0000 0.0000
vn 0.0001 -0.0000 -1.0000
vn 0.0000 0.0000 1.0000
vn 0.0000 1.0000 0.0000
vn 1.0000 -0.0000 0.0000
vn -0.0001 0.0000 1.0000
vn -1.0000 0.0000 -0.0001
vn -0.0000 0.0000 -1.0000
usemtl Material.008
s off
f 3//1 4//1 1//1 2//1
f 3//1 2//1 21//1 22//1
usemtl Material.007
f 13//2 19//2 9//2 15//2
f 19//2 3//2 22//2 9//2
f 8//2 13//2 15//2 24//2
usemtl Material.001
f 18//3 2//3 1//3 17//3
f 6//4 5//4 7//4 8//4
f 6//4 8//4 24//4 23//4
f 10//5 7//5 5//5 11//5
f 12//6 6//6 23//6 20//6
f 16//5 10//5 11//5 17//5
f 23//7 24//7 15//7 9//7 22//7 21//7 14//7 20//7
f 18//6 12//6 20//6 14//6
f 6//3 12//3 11//3 5//3
f 4//5 16//5 17//5 1//5
f 2//6 18//6 14//6 21//6
f 12//3 18//3 17//3 11//3
f 8//8 7//8 10//8 16//8 4//8 3//8 19//8 13//8
o PISO4.000_Cube.000
v 49.663902 6.500000 5.386930
v 49.278156 6.500000 5.386932
v 49.278198 6.500000 5.014729
v 49.663895 6.500000 5.014729
v 49.663902 8.583334 5.386930
v 49.278156 8.583334 5.386932
v 49.663914 8.583334 5.014729
v 49.278217 8.583334 5.014729
v 47.329517 7.389551 5.014622
v 49.663902 8.327475 5.014729
v 49.663902 8.327475 5.386930
v 49.278156 8.327475 5.386932
v 49.278206 8.327475 5.014729
v 47.329472 7.389551 5.386824
v 47.329521 8.327478 5.014622
v 49.663898 7.389547 5.014729
v 49.663902 7.389547 5.386930
v 49.278156 7.389547 5.386932
v 49.278202 7.389547 5.014729
v 47.329472 8.327478 5.386824
v 47.329472 6.500004 5.386824
v 47.329514 6.500004 5.014622
v 47.329472 8.583338 5.386824
v 47.329533 8.583338 5.014622
vn 0.0000 -1.0000 0.0000
vn 0.0001 -0.0000 -1.0000
vn 0.0000 0.0000 1.0000
vn 0.0000 1.0000 0.0000
vn 1.0000 -0.0000 0.0000
vn -0.0001 0.0000 1.0000
vn -1.0000 0.0000 -0.0001
vn 0.0000 0.0000 -1.0000
usemtl Material.008
s off
f 27//9 28//9 25//9 26//9
f 27//9 26//9 45//9 46//9
usemtl Material.007
f 37//10 43//10 33//10 39//10
f 43//10 27//10 46//10 33//10
f 32//10 37//10 39//10 48//10
usemtl Material.001
f 42//11 26//11 25//11 41//11
f 30//12 29//12 31//12 32//12
f 30//12 32//12 48//12 47//12
f 34//13 31//13 29//13 35//13
f 36//14 30//14 47//14 44//14
f 40//13 34//13 35//13 41//13
f 47//15 48//15 39//15 33//15 46//15 45//15 38//15 44//15
f 42//14 36//14 44//14 38//14
f 30//11 36//11 35//11 29//11
f 28//13 40//13 41//13 25//13
f 26//14 42//14 38//14 45//14
f 36//11 42//11 41//11 35//11
f 32//16 31//16 34//16 40//16 28//16 27//16 43//16 37//16
o PISO4.002_Cube.001
v 49.663902 17.500000 5.386930
v 49.278156 17.500000 5.386932
v 49.278198 17.500000 5.014729
v 49.663895 17.500000 5.014729
v 49.663902 19.583334 5.386930
v 49.278156 19.583334 5.386932
v 49.663914 19.583334 5.014729
v 49.278217 19.583334 5.014729
v 47.329517 18.389551 5.014622
v 49.663902 19.327475 5.014729
v 49.663902 19.327475 5.386930
v 49.278156 19.327475 5.386932
v 49.278206 19.327475 5.014729
v 47.329472 18.389551 5.386824
v 47.329521 19.327478 5.014622
v 49.663898 18.389547 5.014729
v 49.663902 18.389547 5.386930
v 49.278156 18.389547 5.386932
v 49.278202 18.389547 5.014729
v 47.329472 19.327478 5.386824
v 47.329472 17.500004 5.386824
v 47.329514 17.500004 5.014622
v 47.329472 19.583338 5.386824
v 47.329533 19.583338 5.014622
vn 0.0000 -1.0000 0.0000
vn 0.0001 -0.0000 -1.0000
vn 0.0000 0.0000 1.0000
vn 0.0000 1.0000 0.0000
vn 1.0000 -0.0000 0.0000
vn -0.0001 0.0000 1.0000
vn -1.0000 0.0000 -0.0001
vn 0.0000 0.0000 -1.0000
usemtl Material.008
s off
f 51//17 52//17 49//17 50//17
f 51//17 50//17 69//17 70//17
usemtl Material.007
f 61//18 67//18 57//18 63//18
f 67//18 51//18 70//18 57//18
f 56//18 61//18 63//18 72//18
usemtl Material.001
f 66//19 50//19 49//19 65//19
f 54//20 53//20 55//20 56//20
f 54//20 56//20 72//20 71//20
f 58//21 55//21 53//21 59//21
f 60//22 54//22 71//22 68//22
f 64//21 58//21 59//21 65//21
f 71//23 72//23 63//23 57//23 70//23 69//23 62//23 68//23
f 66//22 60//22 68//22 62//22
f 54//19 60//19 59//19 53//19
f 52//21 64//21 65//21 49//21
f 50//22 66//22 62//22 69//22
f 56//24 55//24 58//24 64//24 52//24 51//24 67//24 61//24
f 60//19 66//19 65//19 59//19
o TECHO_4_Cube.004
v 49.278202 23.000000 5.386890
v 46.848202 23.000000 5.386890
v 46.848202 25.500000 5.386890
v 46.848202 23.000000 5.012670
v 46.848202 25.500000 5.012670
v 49.278198 23.000000 5.386890
v 49.278198 25.500000 5.386890
v 49.278198 23.000000 5.012670
v 49.278198 25.500000 5.012670
vn -1.0000 0.0000 0.0000
vn 0.0000 0.0000 -1.0000
vn 0.0000 -1.0000 0.0000
vn 0.0000 1.0000 0.0000
vn 1.0000 0.0000 0.0000
vn 0.0000 0.0000 1.0000
usemtl Material.009
s off
f 74//25 75//25 77//25 76//25
f 76//26 77//26 81//26 80//26
f 76//27 80//27 78//27 74//27
f 81//28 77//28 75//28 79//28
usemtl Material.000
f 80//29 81//29 79//29 78//29
f 78//30 79//30 75//30 74//30
