# Blender v2.79 (sub 0) OBJ File: 'balcon_izquierdo_2.blend'
# www.blender.org
mtllib balcon_izquierdo_2.mtl
o PISO1.001_Cube.001
v -49.667801 12.000000 5.022506
v -49.278206 12.000000 5.022506
v -49.667843 12.000000 -4.996370
v -49.278206 12.000000 -4.996370
v -49.667801 14.083331 5.022506
v -49.278198 14.083331 5.022506
v -49.278202 14.083331 -4.996370
v -49.667843 14.083331 -4.996370
vn 0.0000 -1.0000 0.0000
vn 1.0000 -0.0000 -0.0000
vn 0.0000 1.0000 0.0000
vn -1.0000 0.0000 0.0000
vn 0.0000 0.0000 1.0000
vn -0.0000 -0.0000 -1.0000
usemtl Material.011
s off
f 2//1 1//1 3//1 4//1
usemtl Material.009
f 6//2 2//2 4//2 7//2
usemtl Material.110
f 7//3 8//3 5//3 6//3
f 1//4 5//4 8//4 3//4
f 5//5 1//5 2//5 6//5
f 7//6 4//6 3//6 8//6
o PISO1.000_Cube.000
v -49.667801 6.500000 5.022506
v -49.278206 6.500000 5.022506
v -49.667843 6.500000 -4.996370
v -49.278206 6.500000 -4.996370
v -49.667801 8.583332 5.022506
v -49.278198 8.583332 5.022506
v -49.278202 8.583332 -4.996370
v -49.667843 8.583332 -4.996370
vn 0.0000 -1.0000 0.0000
vn 1.0000 -0.0000 -0.0000
vn 0.0000 1.0000 -0.0000
vn -1.0000 0.0000 0.0000
vn -0.0000 -0.0000 -1.0000
vn 0.0000 0.0000 1.0000
usemtl Material.011
s off
f 10//7 9//7 11//7 12//7
usemtl Material.009
f 14//8 10//8 12//8 15//8
usemtl Material.110
f 15//9 16//9 13//9 14//9
f 9//10 13//10 16//10 11//10
f 15//11 12//11 11//11 16//11
f 13//12 9//12 10//12 14//12
o PISO1.002_Cube.002
v -49.667801 17.499998 5.022506
v -49.278206 17.499998 5.022506
v -49.667843 17.499998 -4.996370
v -49.278206 17.499998 -4.996370
v -49.667801 19.583330 5.022506
v -49.278198 19.583330 5.022506
v -49.278202 19.583330 -4.996370
v -49.667843 19.583330 -4.996370
vn 0.0000 -1.0000 0.0000
vn 1.0000 -0.0000 -0.0000
vn -0.0000 -0.0000 -1.0000
vn 0.0000 1.0000 0.0000
vn 0.0000 0.0000 1.0000
vn -1.0000 0.0000 0.0000
usemtl Material.011
s off
f 18//13 17//13 19//13 20//13
usemtl Material.009
f 22//14 18//14 20//14 23//14
usemtl Material.110
f 23//15 20//15 19//15 24//15
f 23//16 24//16 21//16 22//16
f 21//17 17//17 18//17 22//17
f 17//18 21//18 24//18 19//18
o TECHO_4_Cube.033
v -49.668201 23.000000 5.419930
v -49.668201 25.500000 5.419930
v -49.668201 23.000000 -5.343550
v -49.668201 25.500000 -5.343550
v -49.278198 23.000000 5.419930
v -49.278198 25.500000 5.419930
v -49.278198 23.000000 -5.343550
v -49.278198 25.500000 -5.343550
vn 1.0000 0.0000 0.0000
vn 0.0000 -1.0000 0.0000
vn 0.0000 1.0000 0.0000
vn -1.0000 0.0000 0.0000
vn 0.0000 0.0000 -1.0000
vn 0.0000 0.0000 1.0000
usemtl Material.075
s off
f 31//19 32//19 30//19 29//19
f 27//20 31//20 29//20 25//20
f 32//21 28//21 26//21 30//21
usemtl Material.112
f 25//22 26//22 28//22 27//22
f 27//23 28//23 32//23 31//23
f 29//24 30//24 26//24 25//24
