# Blender v2.79 (sub 0) OBJ File: 'terraza_izquierda_2.blend'
# www.blender.org
mtllib terraza_izquierda_2.mtl
o TECHO_4_Cube.033
v -47.328602 22.500000 -14.582100
v -47.328602 23.000000 -14.582100
v -47.328602 23.000000 -5.322046
v -47.328602 22.500000 -5.322047
v -46.848202 22.500000 -14.582100
v -46.848202 23.000000 -14.582100
v -46.848202 22.500000 -5.322051
v -46.848202 23.000000 -5.322050
v -47.328602 23.000000 -5.739259
v -47.328602 22.500000 -5.739260
v -46.848202 23.000000 -6.080774
v -46.848202 22.500000 -6.080774
v -47.328602 23.000000 -14.230762
v -47.328602 22.500000 -14.230762
v -46.848202 23.000000 -14.322708
v -46.848202 22.500000 -14.322708
v -47.328602 25.499971 -14.230762
v -47.328602 25.499971 -14.582100
v -46.848202 25.499971 -14.582100
v -47.328602 25.499971 -5.322046
v -46.848202 25.499971 -5.322050
v -46.848202 25.499971 -6.080774
v -47.328602 25.499971 -5.739259
v -46.848202 25.499971 -14.322708
vn 0.0000 -1.0000 0.0000
vn 1.0000 0.0000 0.0000
vn 0.0000 1.0000 0.0000
vn 0.0000 -0.0000 1.0000
vn 0.0000 0.0000 -1.0000
vn -1.0000 0.0000 0.0000
usemtl Material.075
s off
f 10//1 12//1 7//1 4//1
f 8//2 11//2 22//2 21//2
f 14//1 16//1 12//1 10//1
f 1//1 5//1 16//1 14//1
f 22//3 23//3 20//3 21//3
f 24//3 17//3 23//3 22//3
f 19//3 18//3 17//3 24//3
f 11//2 15//2 24//2 22//2
f 11//2 12//2 16//2 15//2
f 8//2 7//2 12//2 11//2
f 7//4 8//4 3//4 4//4
usemtl Material.106
f 1//5 2//5 6//5 5//5
f 6//5 2//5 18//5 19//5
f 5//2 6//2 15//2 16//2
f 19//2 24//2 15//2 6//2
usemtl Material.112
f 14//6 13//6 2//6 1//6
f 4//6 3//6 9//6 10//6
f 2//6 13//6 17//6 18//6
f 10//6 9//6 13//6 14//6
f 9//6 3//6 20//6 23//6
f 13//6 9//6 23//6 17//6
f 8//4 21//4 20//4 3//4
