# Blender v2.79 (sub 0) OBJ File: 'terraza_derecha_1.blend'
# www.blender.org
mtllib terraza_derecha_1.mtl
o TECHO_4_Cube.033
v 47.329498 22.500000 14.637800
v 47.329498 23.000000 14.637800
v 47.329498 22.500000 5.735346
v 47.329498 23.000000 5.735346
v 47.329487 23.000000 5.386890
v 47.329487 22.500000 5.386890
v 46.848194 22.500000 14.637800
v 46.848194 23.000000 5.735346
v 46.848198 23.000000 14.637800
v 46.848198 22.500000 5.735346
v 47.329498 23.000000 14.362814
v 47.329498 22.500000 14.362814
v 46.848198 23.000000 14.362814
v 46.848194 22.500000 14.362814
v 47.329498 25.499971 14.362814
v 47.329498 25.499971 14.637800
v 46.848194 25.499971 5.735346
v 47.329498 25.499971 5.735346
v 46.848198 25.499971 14.637800
v 46.848198 25.499971 14.362814
v 46.848194 23.000000 5.386890
v 47.329498 23.000000 5.386890
v 46.848194 25.499971 5.386890
v 47.329498 25.499971 5.386890
v 46.848198 25.346178 14.637800
v 46.848194 25.346178 5.735346
v 46.848198 25.346178 14.362814
v 47.329498 25.346178 14.362814
v 47.329498 25.346178 14.637800
v 47.329498 25.346178 5.735346
v 46.848194 25.346178 5.386890
v 47.329498 25.346178 5.386890
v 46.848198 22.500000 5.386890
vn 0.0000 -1.0000 0.0000
vn -1.0000 0.0000 0.0000
vn 0.0000 1.0000 0.0000
vn 0.0000 0.0000 1.0000
vn 0.0000 0.0000 -1.0000
vn 1.0000 0.0000 0.0000
usemtl Material.075
s off
f 14//1 12//1 1//1 7//1
f 26//2 27//2 20//2 17//2
f 10//1 3//1 12//1 14//1
f 15//3 20//3 19//3 16//3
f 18//3 17//3 20//3 15//3
f 25//4 29//4 16//4 19//4
f 26//2 17//2 23//2 31//2
f 4//1 8//1 21//1 22//1
f 17//3 18//3 24//3 23//3
f 8//2 26//2 31//2 21//2
f 8//2 13//2 27//2 26//2
f 19//2 20//2 27//2 25//2
f 13//2 8//2 10//2 14//2
f 24//5 32//5 31//5 23//5
f 22//5 21//5 31//5 32//5
f 21//2 33//2 10//2 8//2
f 33//5 21//5 22//5 6//5
usemtl Material.106
f 1//4 2//4 9//4 7//4
f 9//4 2//4 29//4 25//4
f 25//2 27//2 13//2 9//2
f 9//2 13//2 14//2 7//2
usemtl Material.112
f 12//6 11//6 2//6 1//6
f 4//6 3//6 6//6 5//6
f 29//6 28//6 15//6 16//6
f 3//6 4//6 11//6 12//6
f 30//6 4//6 22//6 32//6
f 28//6 30//6 18//6 15//6
f 11//6 4//6 30//6 28//6
f 18//6 30//6 32//6 24//6
f 2//6 11//6 28//6 29//6
f 6//1 3//1 10//1 33//1
